<svg xmlns="http://www.w3.org/2000/svg" width="130" height="101" viewBox="0 0 130 101">
<g>
<path d="M 53.83 75.50 L 53.50 78.50 L 45.23 78.79 C39.16,79.00 36.86,78.74 36.55,77.79 C36.32,77.08 35.47,73.57 34.65,70.00 C33.84,66.43 31.32,56.08 29.05,47.00 C25.60,33.24 24.49,30.15 22.33,28.36 C18.01,24.79 20.05,24.00 33.56,24.00 C42.89,24.00 46.00,24.31 46.00,25.26 C46.00,25.95 45.15,27.05 44.12,27.69 C42.31,28.82 42.40,29.51 46.57,46.05 C48.95,55.50 51.14,63.47 51.42,63.76 C52.17,64.51 53.84,59.85 56.64,49.15 C58.79,40.97 58.96,39.13 58.00,34.51 C57.40,31.60 56.04,28.44 54.98,27.48 C53.92,26.52 53.29,25.34 53.58,24.87 C54.31,23.69 77.73,23.76 78.46,24.93 C78.77,25.44 78.08,26.53 76.92,27.35 C76.44,27.68 76.06,27.90 75.79,28.22 C74.79,29.41 75.44,31.97 79.14,46.74 C79.36,47.62 79.59,48.53 79.83,49.50 C80.93,53.90 82.11,58.74 82.44,60.25 C82.77,61.76 83.44,63.00 83.94,63.00 C85.10,63.00 86.13,59.47 89.59,43.64 L 92.40 30.78 L 89.14 28.11 C87.35,26.65 86.21,25.13 86.61,24.73 C87.67,23.66 101.78,23.84 102.45,24.92 C102.76,25.43 101.79,26.81 100.29,27.99 C96.82,30.72 95.62,33.65 93.02,45.72 C91.86,51.10 90.07,59.10 89.05,63.50 C88.03,67.90 86.90,73.19 86.55,75.25 L 85.91 79.00 L 77.70 78.99 L 69.50 78.99 L 66.25 65.74 C64.46,58.45 63.00,51.71 63.00,50.75 C63.00,49.79 62.40,49.00 61.67,49.00 C60.87,49.00 59.70,51.50 58.75,55.25 C57.87,58.69 56.49,63.97 55.66,67.00 C54.84,70.03 54.02,73.85 53.83,75.50 ZM 105.90 78.25 C99.22,83.75 89.33,75.07 93.37,67.25 C95.51,63.12 100.02,61.35 104.12,63.05 C110.00,65.48 111.00,74.05 105.90,78.25 Z" fill="rgb(5,4,24)"/>
<path d="M 65.50 62.63 C63.84,56.05 62.31,51.00 61.96,51.00 C60.78,51.00 59.48,52.98 58.52,56.13 C58.60,55.82 58.68,55.53 58.75,55.25 C59.70,51.50 60.87,49.00 61.67,49.00 C62.40,49.00 63.00,49.79 63.00,50.75 C63.00,51.57 64.07,56.62 65.50,62.63 ZM 53.83 75.50 C54.02,73.85 54.84,70.03 55.66,67.00 C56.15,65.23 56.82,62.69 57.47,60.19 C56.92,62.34 56.23,64.95 55.67,67.00 C54.84,70.03 54.02,73.85 53.83,75.50 ZM 77.70 78.99 L 85.91 79.00 L 77.70 79.00 L 69.50 78.99 L 69.30 78.18 L 69.50 78.99 Z" fill="rgb(178,179,186)"/>
<path d="M 0.00 50.50 L 0.00 0.00 L 65.00 0.00 L 130.00 0.00 L 130.00 50.50 L 130.00 101.00 L 65.00 101.00 L 0.00 101.00 L 0.00 50.50 ZM 105.90 78.25 C111.00,74.05 110.00,65.48 104.12,63.05 C100.02,61.35 95.51,63.12 93.37,67.25 C89.33,75.07 99.22,83.75 105.90,78.25 ZM 53.83 75.50 C54.02,73.85 54.84,70.03 55.67,67.00 C56.50,63.97 57.61,59.72 58.14,57.54 C59.10,53.58 60.61,51.00 61.96,51.00 C62.35,51.00 64.21,57.30 66.09,65.00 L 69.50 78.99 L 77.70 79.00 L 85.91 79.00 L 86.55 75.25 C86.90,73.19 88.03,67.90 89.05,63.50 C90.07,59.10 91.86,51.10 93.02,45.72 C95.62,33.65 96.82,30.72 100.29,27.99 C101.79,26.81 102.76,25.43 102.45,24.92 C101.78,23.84 87.67,23.66 86.61,24.73 C86.21,25.13 87.35,26.65 89.14,28.11 L 92.40 30.78 L 89.59 43.64 C86.13,59.47 85.10,63.00 83.94,63.00 C83.44,63.00 82.77,61.76 82.44,60.25 C82.11,58.74 80.93,53.90 79.83,49.50 C74.42,27.91 74.57,28.99 76.92,27.35 C78.08,26.53 78.77,25.44 78.46,24.93 C77.73,23.76 54.31,23.69 53.58,24.87 C53.29,25.34 53.92,26.52 54.98,27.48 C56.04,28.44 57.40,31.60 58.00,34.51 C58.96,39.13 58.79,40.97 56.64,49.15 C53.84,59.85 52.17,64.51 51.42,63.76 C51.14,63.47 48.95,55.50 46.57,46.05 C42.40,29.51 42.31,28.82 44.12,27.69 C45.15,27.05 46.00,25.95 46.00,25.26 C46.00,24.31 42.89,24.00 33.56,24.00 C20.05,24.00 18.01,24.79 22.33,28.36 C24.49,30.15 25.60,33.24 29.05,47.00 C31.32,56.08 33.84,66.43 34.65,70.00 C35.47,73.57 36.32,77.08 36.55,77.79 C36.86,78.74 39.16,79.00 45.23,78.79 L 53.50 78.50 L 53.83 75.50 Z" fill="rgb(253,253,253)"/>
</g>
</svg>